HIERARCHY
ROOT hips
{
	OFFSET -0.003675 0.299928 -0.021708
	CHANNELS 6 Xposition Yposition Zposition Xrotation Yrotation Zrotation
	JOINT LowerBack
	{
		OFFSET 0.000919 0.177588 0.009275
		CHANNELS 3 Xrotation Yrotation Zrotation
		JOINT spine
		{
			OFFSET 0.000919 0.177588 0.009275
			CHANNELS 3 Xrotation Yrotation Zrotation
			JOINT chest
			{
				OFFSET 0.000456 0.100015 0.004638
				CHANNELS 3 Xrotation Yrotation Zrotation
				JOINT neck
				{
					OFFSET 0.000456 0.100015 0.004638
					CHANNELS 3 Xrotation Yrotation Zrotation
					JOINT head
					{
						OFFSET 0.000924 0.155147 0.009274
						CHANNELS 6 Xposition Yposition Zposition Xrotation Yrotation Zrotation
						End Site
						{
							OFFSET 0.000000 0.153400 0.000000
						}
					}
				}
				JOINT shoulder.L
				{
					OFFSET 0.019937 0.078966 0.057518
					CHANNELS 6 Xposition Yposition Zposition Yrotation Xrotation Zrotation
					JOINT upper_arm.L
					{
						OFFSET 0.177024 -0.020465 -0.095062
						CHANNELS 6 Xposition Yposition Zposition Xrotation Yrotation Zrotation
						JOINT forearm.L
						{
							OFFSET 0.247100 -0.135500 -0.061800
							CHANNELS 3 Xrotation Yrotation Zrotation
							JOINT hand.L
							{
								OFFSET 0.217000 -0.143000 0.039300
								CHANNELS 3 Xrotation Yrotation Zrotation
								JOINT palm.01.L
								{
									OFFSET 0.021770 -0.038291 0.012954
									CHANNELS 6 Xposition Yposition Zposition Yrotation Xrotation Zrotation
									JOINT f_index.01.L
									{
										OFFSET 0.053215 -0.044137 0.008236
										CHANNELS 3 Xrotation Yrotation Zrotation
										JOINT f_index.02.L
										{
											OFFSET 0.036108 -0.024723 -0.010656
											CHANNELS 3 Xrotation Yrotation Zrotation
											JOINT f_index.03.L
											{
												OFFSET 0.021342 -0.014948 -0.010846
												CHANNELS 3 Xrotation Yrotation Zrotation
												End Site
												{
													OFFSET 0.015600 -0.009860 -0.013421
												}
											}
										}
									}
									JOINT thumb.01.L
									{
										OFFSET -0.009090 -0.002348 -0.024223
										CHANNELS 6 Xposition Yposition Zposition Xrotation Yrotation Zrotation
										JOINT thumb.02.L
										{
											OFFSET 0.019713 -0.035076 -0.011120
											CHANNELS 3 Xrotation Yrotation Zrotation
											JOINT thumb.03.L
											{
												OFFSET 0.024877 -0.021748 -0.005176
												CHANNELS 3 Xrotation Yrotation Zrotation
												End Site
												{
													OFFSET 0.016125 -0.013029 -0.001569
												}
											}
										}
									}
								}
								JOINT palm.02.L
								{
									OFFSET 0.032823 -0.025104 0.012281
									CHANNELS 6 Xposition Yposition Zposition Yrotation Xrotation Zrotation
									JOINT f_middle.01.L
									{
										OFFSET 0.055723 -0.038469 0.008037
										CHANNELS 3 Xrotation Yrotation Zrotation
										JOINT f_middle.02.L
										{
											OFFSET 0.038167 -0.027473 -0.015582
											CHANNELS 3 Xrotation Yrotation Zrotation
											JOINT f_middle.03.L
											{
												OFFSET 0.021707 -0.016587 -0.017037
												CHANNELS 3 Xrotation Yrotation Zrotation
												End Site
												{
													OFFSET 0.014112 -0.010584 -0.014294
												}
											}
										}
									}
								}
								JOINT palm.03.L
								{
									OFFSET 0.039230 -0.011402 0.008390
									CHANNELS 6 Xposition Yposition Zposition Yrotation Xrotation Zrotation
									JOINT f_ring.01.L
									{
										OFFSET 0.061796 -0.031470 0.007910
										CHANNELS 3 Xrotation Yrotation Zrotation
										JOINT f_ring.02.L
										{
											OFFSET 0.033092 -0.023401 -0.019127
											CHANNELS 3 Xrotation Yrotation Zrotation
											JOINT f_ring.03.L
											{
												OFFSET 0.021392 -0.015362 -0.017824
												CHANNELS 3 Xrotation Yrotation Zrotation
												End Site
												{
													OFFSET 0.008670 -0.007297 -0.014686
												}
											}
										}
									}
								}
								JOINT palm.04.L
								{
									OFFSET 0.043417 0.002450 0.002889
									CHANNELS 6 Xposition Yposition Zposition Yrotation Xrotation Zrotation
									JOINT f_pinky.01.L
									{
										OFFSET 0.069986 -0.026156 0.003627
										CHANNELS 3 Xrotation Yrotation Zrotation
										JOINT f_pinky.02.L
										{
											OFFSET 0.018520 -0.012813 -0.016429
											CHANNELS 3 Xrotation Yrotation Zrotation
											JOINT f_pinky.03.L
											{
												OFFSET 0.013822 -0.009796 -0.014947
												CHANNELS 3 Xrotation Yrotation Zrotation
												End Site
												{
													OFFSET 0.007238 -0.006103 -0.011657
												}
											}
										}
									}
								}
							}
						}
					}
				}
				JOINT shoulder.R
				{
					OFFSET -0.016662 0.078957 0.057696
					CHANNELS 6 Xposition Yposition Zposition Yrotation Xrotation Zrotation
					JOINT upper_arm.R
					{
						OFFSET -0.176972 -0.020537 -0.095144
						CHANNELS 6 Xposition Yposition Zposition Xrotation Yrotation Zrotation
						JOINT forearm.R
						{
							OFFSET -0.247100 -0.135500 -0.061800
							CHANNELS 3 Xrotation Yrotation Zrotation
							JOINT hand.R
							{
								OFFSET -0.217000 -0.143000 0.039300
								CHANNELS 3 Xrotation Yrotation Zrotation
								JOINT palm.01.R
								{
									OFFSET -0.021773 -0.038278 0.012988
									CHANNELS 6 Xposition Yposition Zposition Yrotation Xrotation Zrotation
									JOINT f_index.01.R
									{
										OFFSET -0.053212 -0.044139 0.008249
										CHANNELS 3 Xrotation Yrotation Zrotation
										JOINT f_index.02.R
										{
											OFFSET -0.036049 -0.024835 -0.010634
											CHANNELS 3 Xrotation Yrotation Zrotation
											JOINT f_index.03.R
											{
												OFFSET -0.021371 -0.014881 -0.010866
												CHANNELS 3 Xrotation Yrotation Zrotation
												End Site
												{
													OFFSET -0.015584 -0.009883 -0.013422
												}
											}
										}
									}
									JOINT thumb.01.R
									{
										OFFSET 0.009113 -0.002381 -0.024211
										CHANNELS 6 Xposition Yposition Zposition Xrotation Yrotation Zrotation
										JOINT thumb.02.R
										{
											OFFSET -0.019694 -0.035097 -0.011088
											CHANNELS 3 Xrotation Yrotation Zrotation
											JOINT thumb.03.R
											{
												OFFSET -0.024867 -0.021762 -0.005168
												CHANNELS 3 Xrotation Yrotation Zrotation
												End Site
												{
													OFFSET -0.016120 -0.013036 -0.001565
												}
											}
										}
									}
								}
								JOINT palm.02.R
								{
									OFFSET -0.032828 -0.025095 0.012286
									CHANNELS 6 Xposition Yposition Zposition Yrotation Xrotation Zrotation
									JOINT f_middle.01.R
									{
										OFFSET -0.055721 -0.038472 0.008040
										CHANNELS 3 Xrotation Yrotation Zrotation
										JOINT f_middle.02.R
										{
											OFFSET -0.038101 -0.027593 -0.015557
											CHANNELS 3 Xrotation Yrotation Zrotation
											JOINT f_middle.03.R
											{
												OFFSET -0.021730 -0.016530 -0.017054
												CHANNELS 3 Xrotation Yrotation Zrotation
												End Site
												{
													OFFSET -0.014096 -0.010608 -0.014293
												}
											}
										}
									}
								}
								JOINT palm.03.R
								{
									OFFSET -0.039192 -0.011488 0.008390
									CHANNELS 6 Xposition Yposition Zposition Yrotation Xrotation Zrotation
									JOINT f_ring.01.R
									{
										OFFSET -0.061839 -0.031387 0.007876
										CHANNELS 3 Xrotation Yrotation Zrotation
										JOINT f_ring.02.R
										{
											OFFSET -0.033068 -0.023437 -0.019125
											CHANNELS 3 Xrotation Yrotation Zrotation
											JOINT f_ring.03.R
											{
												OFFSET -0.021371 -0.015393 -0.017822
												CHANNELS 3 Xrotation Yrotation Zrotation
												End Site
												{
													OFFSET -0.008654 -0.007321 -0.014684
												}
											}
										}
									}
								}
								JOINT palm.04.R
								{
									OFFSET -0.043421 0.002443 0.002845
									CHANNELS 6 Xposition Yposition Zposition Yrotation Xrotation Zrotation
									JOINT f_pinky.01.R
									{
										OFFSET -0.069983 -0.026169 0.003599
										CHANNELS 3 Xrotation Yrotation Zrotation
										JOINT f_pinky.02.R
										{
											OFFSET -0.018501 -0.012842 -0.016428
											CHANNELS 3 Xrotation Yrotation Zrotation
											JOINT f_pinky.03.R
											{
												OFFSET -0.013806 -0.009821 -0.014946
												CHANNELS 3 Xrotation Yrotation Zrotation
												End Site
												{
													OFFSET -0.007226 -0.006121 -0.011655
												}
											}
										}
									}
								}
							}
						}
					}
				}
			}
		}
	}
	JOINT pelvis.L
	{
		OFFSET 0.000000 0.000000 0.000000
		CHANNELS 6 Xposition Yposition Zposition Xrotation Yrotation Zrotation
		JOINT thigh.L
		{
			OFFSET 0.101675 0.001054 -0.000000
			CHANNELS 3 Xrotation Yrotation Zrotation
			JOINT shin.L
			{
				OFFSET 0.000000 -0.534800 0.041000
				CHANNELS 3 Xrotation Yrotation Zrotation
				JOINT foot.L
				{
					OFFSET 0.000000 -0.452000 -0.044800
					CHANNELS 3 Xrotation Yrotation Zrotation
					JOINT toe.L
					{
						OFFSET -0.000000 -0.068500 0.109600
						CHANNELS 3 Xrotation Yrotation Zrotation
						End Site
						{
							OFFSET -0.000000 0.000000 0.067200
						}
					}
				}
				JOINT heel.L
				{
					OFFSET 0.000000 -0.452000 -0.044800
					CHANNELS 3 Xrotation Yrotation Zrotation
					JOINT heel.02.L
					{
						OFFSET -0.038000 -0.085200 0.016200
						CHANNELS 6 Xposition Yposition Zposition Xrotation Yrotation Zrotation
						End Site
						{
							OFFSET 0.080000 -0.000000 0.000000
						}
					}
				}
			}
		}
	}
	JOINT pelvis.R
	{
		OFFSET 0.000000 0.000000 0.000000
		CHANNELS 6 Xposition Yposition Zposition Xrotation Yrotation Zrotation
		JOINT thigh.R
		{
			OFFSET -0.094325 0.001054 0.000000
			CHANNELS 3 Xrotation Yrotation Zrotation
			JOINT shin.R
			{
				OFFSET 0.000000 -0.534800 0.041000
				CHANNELS 3 Xrotation Yrotation Zrotation
				JOINT foot.R
				{
					OFFSET 0.000000 -0.452000 -0.044800
					CHANNELS 3 Xrotation Yrotation Zrotation
					JOINT toe.R
					{
						OFFSET -0.000000 -0.068500 0.109600
						CHANNELS 3 Xrotation Yrotation Zrotation
						End Site
						{
							OFFSET -0.000000 0.000000 0.067200
						}
					}
				}
				JOINT heel.R
				{
					OFFSET 0.000000 -0.452000 -0.044800
					CHANNELS 3 Xrotation Yrotation Zrotation
					JOINT heel.02.R
					{
						OFFSET 0.038000 -0.085200 0.016200
						CHANNELS 6 Xposition Yposition Zposition Xrotation Yrotation Zrotation
						End Site
						{
							OFFSET -0.080000 0.000000 -0.000000
						}
					}
				}
			}
		}
	}
}
MOTION
Frames: 4
Frame Time: 0.041667
-0.006046 0.271089 -0.014924 23.933505 -41.792606 26.652621 0.000000 0.000001 -0.000000 -0.000000 0.000001 -0.000001 0.000003 0.000002 0.000000 0.000002 0.000000 -0.000001 0.000924 0.155148 0.009274 7.920091 -0.009972 3.589572 0.019937 0.078966 0.057518 -39.354341 8.836101 43.702183 0.177025 -0.020465 -0.095062 -86.441501 32.082587 -50.007834 -9.720709 -8.998293 -18.474229 -0.000001 -0.000001 -0.000000 0.021770 -0.038291 0.012954 0.000002 -0.000000 -0.000002 -0.000000 0.000001 0.000005 0.000001 0.000004 0.000004 0.000002 0.000001 -0.000000 -0.009090 -0.002348 -0.024223 0.000001 0.000001 0.000008 0.000001 0.000000 0.000001 0.000000 0.000001 -0.000002 0.032823 -0.025104 0.012281 0.000002 0.000002 0.000005 0.000000 -0.000001 -0.000003 0.000001 0.000004 0.000002 -0.000001 0.000001 0.000001 0.039230 -0.011402 0.008390 0.000002 -0.000001 0.000004 0.000002 0.000000 -0.000000 -0.000000 0.000002 0.000003 0.000003 0.000000 0.000003 0.043417 0.002450 0.002889 0.000000 0.000001 -0.000005 -0.000001 -0.000006 -0.000000 -0.000001 -0.000001 -0.000001 0.000001 0.000003 -0.000001 -0.016662 0.078957 0.057696 -19.228034 7.662071 -31.869567 -0.176972 -0.020537 -0.095144 -56.025685 16.368021 33.495975 -27.207066 32.133643 5.828720 -0.000003 0.000001 0.000002 -0.021773 -0.038278 0.012988 0.000002 0.000005 -0.000005 -0.000002 0.000001 0.000000 0.000003 -0.000002 -0.000003 -0.000001 -0.000001 0.000004 0.009113 -0.002381 -0.024211 -0.000000 -0.000005 -0.000000 -0.000001 -0.000001 -0.000001 -0.000001 0.000000 -0.000003 -0.032828 -0.025095 0.012286 0.000002 0.000004 -0.000003 -0.000000 0.000001 -0.000003 0.000004 -0.000003 0.000001 -0.000002 -0.000001 -0.000004 -0.039192 -0.011488 0.008390 0.000002 0.000006 0.000002 -0.000001 -0.000001 -0.000002 -0.000007 -0.000004 -0.000000 -0.000003 0.000002 -0.000004 -0.043421 0.002443 0.002845 0.000001 0.000003 0.000002 -0.000004 0.000003 0.000001 -0.000002 -0.000001 -0.000000 -0.000000 0.000001 -0.000003 0.000000 0.000000 0.000000 -1.573472 0.641894 -8.995720 4.089107 0.559900 7.371178 32.968722 1.323370 -13.476118 -0.000003 -0.000002 -0.000001 -0.000003 0.000002 -0.000001 0.000000 -0.000002 0.000002 -0.038000 -0.085200 0.016200 -0.000003 0.000001 0.000000 -0.000000 -0.000000 0.000000 -1.519527 0.633927 -7.762122 -34.667967 -0.420288 -8.059181 48.014123 2.316082 -24.082284 -0.000003 -0.000002 0.000000 0.000005 -0.000001 -0.000001 0.000002 -0.000004 -0.000001 0.038000 -0.085200 0.016200 0.000000 -0.000004 -0.000000 
-0.006271 0.270501 -0.014541 24.671991 -42.475085 26.424950 -0.000002 -0.000005 0.000002 -0.000001 -0.000006 0.000001 -0.000001 -0.000001 0.000001 0.000001 -0.000002 -0.000000 0.000924 0.155147 0.009274 8.638696 -0.011574 4.645672 0.019937 0.078966 0.057518 -39.386532 8.775655 43.767152 0.177024 -0.020465 -0.095062 -87.129131 32.428830 -49.722958 -8.045506 -7.893650 -17.541353 -0.000002 -0.000001 -0.000002 0.021770 -0.038291 0.012954 0.000002 0.000002 0.000003 -0.000002 -0.000002 -0.000000 -0.000000 0.000001 0.000001 0.000003 0.000005 -0.000003 -0.009090 -0.002348 -0.024223 -0.000001 -0.000004 0.000002 -0.000001 -0.000001 0.000005 0.000000 -0.000001 -0.000002 0.032823 -0.025104 0.012281 0.000001 0.000001 0.000009 -0.000001 0.000002 -0.000005 -0.000001 0.000002 -0.000000 -0.000000 0.000003 0.000001 0.039230 -0.011402 0.008390 0.000001 0.000001 0.000004 0.000002 -0.000000 -0.000000 -0.000001 0.000006 -0.000000 0.000004 -0.000004 0.000000 0.043418 0.002450 0.002889 0.000002 0.000001 0.000002 0.000001 -0.000003 -0.000000 0.000000 -0.000003 0.000001 -0.000001 -0.000002 -0.000001 -0.016662 0.078957 0.057696 -19.304000 7.579432 -31.773975 -0.176972 -0.020537 -0.095144 -57.150761 15.489518 34.403499 -26.722540 29.553860 8.032372 -0.000003 -0.000001 -0.000001 -0.021773 -0.038278 0.012988 0.000000 0.000001 -0.000003 0.000001 -0.000002 -0.000001 -0.000001 -0.000000 -0.000006 -0.000004 -0.000003 0.000003 0.009114 -0.002381 -0.024212 -0.000000 -0.000003 -0.000005 0.000004 -0.000004 0.000000 0.000006 -0.000000 -0.000003 -0.032828 -0.025095 0.012286 -0.000000 0.000000 0.000001 -0.000001 0.000003 0.000001 0.000002 0.000001 -0.000002 -0.000003 0.000003 -0.000003 -0.039192 -0.011488 0.008390 -0.000000 0.000001 0.000001 -0.000003 0.000001 -0.000002 -0.000001 0.000000 0.000002 0.000001 0.000003 -0.000001 -0.043421 0.002443 0.002844 -0.000002 -0.000000 0.000002 -0.000000 0.000006 0.000001 -0.000002 -0.000003 -0.000003 -0.000000 -0.000000 -0.000000 -0.000000 0.000000 -0.000000 -1.590228 0.637066 -8.906340 5.264284 0.589098 7.688495 27.562518 1.195106 -12.148298 0.000000 -0.000001 0.000002 -0.000004 -0.000000 0.000001 0.000002 -0.000004 0.000003 -0.038000 -0.085200 0.016200 0.000003 0.000001 -0.000002 -0.000000 0.000000 -0.000000 -1.535999 0.629143 -7.672755 -33.190502 -0.437755 -8.209940 44.678282 2.238561 -23.227132 -0.000002 0.000004 -0.000001 -0.000000 -0.000003 0.000002 0.000005 -0.000001 -0.000000 0.038000 -0.085200 0.016200 0.000000 -0.000005 0.000001 
-0.006034 0.271615 -0.014383 25.718051 -42.657991 26.831189 0.000002 -0.000002 0.000001 0.000002 -0.000002 0.000000 0.000002 0.000004 -0.000001 0.000003 0.000000 -0.000002 0.000924 0.155148 0.009274 9.771418 -0.013757 5.981509 0.019937 0.078966 0.057518 -39.911865 9.140174 44.215342 0.177024 -0.020465 -0.095062 -88.495394 35.104707 -49.889484 -6.412618 -6.662026 -18.606772 -0.000001 0.000002 0.000001 0.021770 -0.038291 0.012954 0.000001 -0.000000 -0.000001 -0.000001 -0.000001 0.000001 0.000003 -0.000002 0.000003 0.000001 0.000002 0.000004 -0.009090 -0.002348 -0.024223 -0.000002 -0.000003 -0.000002 -0.000000 -0.000002 0.000001 0.000000 0.000001 -0.000002 0.032823 -0.025104 0.012281 0.000000 -0.000000 0.000002 0.000001 0.000002 -0.000005 -0.000002 0.000004 0.000002 -0.000002 -0.000001 -0.000003 0.039230 -0.011402 0.008390 0.000002 -0.000001 0.000006 0.000002 0.000000 -0.000000 0.000002 0.000007 0.000003 0.000004 -0.000003 0.000002 0.043417 0.002450 0.002889 0.000001 0.000001 -0.000002 0.000001 0.000002 -0.000001 -0.000001 -0.000001 0.000003 0.000001 0.000003 -0.000002 -0.016662 0.078957 0.057696 -19.670711 7.711082 -31.464755 -0.176972 -0.020537 -0.095144 -58.002226 14.122972 35.572595 -27.464293 28.524048 10.285387 -0.000001 -0.000001 0.000000 -0.021773 -0.038278 0.012988 0.000000 -0.000005 0.000000 -0.000005 0.000000 0.000002 -0.000003 -0.000000 -0.000004 0.000001 -0.000003 0.000007 0.009114 -0.002381 -0.024211 -0.000001 -0.000003 -0.000001 0.000003 -0.000000 0.000000 0.000003 0.000002 -0.000003 -0.032828 -0.025095 0.012286 0.000001 0.000001 0.000001 -0.000001 0.000002 0.000001 -0.000001 0.000000 -0.000000 0.000006 0.000008 -0.000003 -0.039192 -0.011488 0.008390 0.000001 0.000004 -0.000002 -0.000002 0.000004 -0.000002 -0.000000 -0.000001 0.000003 -0.000004 0.000004 -0.000000 -0.043421 0.002443 0.002844 0.000001 0.000003 0.000000 -0.000002 0.000004 -0.000002 -0.000003 -0.000001 -0.000000 0.000006 -0.000001 -0.000000 0.000000 0.000000 0.000000 -1.564054 0.673316 -9.398600 5.322473 0.495440 6.454007 26.640398 1.236480 -12.575831 0.000002 -0.000003 0.000002 0.000001 -0.000001 0.000003 0.000000 -0.000003 0.000003 -0.038000 -0.085200 0.016200 0.000003 -0.000004 0.000001 0.000000 0.000000 0.000000 -1.509344 0.664839 -8.165069 -33.029811 -0.372868 -7.348362 43.273657 2.143660 -22.187622 0.000000 0.000006 0.000002 0.000003 0.000001 0.000002 0.000007 0.000004 0.000001 0.038000 -0.085200 0.016200 -0.000002 0.000004 0.000001 
-0.005923 0.269795 -0.013617 26.714135 -44.362543 27.340721 -0.000000 0.000004 -0.000003 -0.000003 -0.000003 -0.000001 0.000000 0.000002 0.000000 0.000003 0.000001 -0.000000 0.000924 0.155148 0.009274 9.038284 -0.012150 4.510534 0.019937 0.078966 0.057518 -41.014046 9.338506 44.828871 0.177024 -0.020465 -0.095062 -88.739737 35.128653 -49.690996 -5.749841 -6.227969 -16.680763 -0.000001 0.000003 -0.000003 0.021770 -0.038291 0.012954 -0.000001 -0.000001 -0.000001 -0.000001 -0.000002 -0.000000 -0.000003 -0.000006 0.000008 0.000001 0.000002 0.000002 -0.009090 -0.002348 -0.024224 0.000001 -0.000004 -0.000001 -0.000001 0.000001 -0.000002 0.000000 0.000001 0.000003 0.032823 -0.025104 0.012281 -0.000003 0.000001 0.000007 -0.000001 0.000001 -0.000003 -0.000002 0.000000 0.000001 -0.000003 0.000001 0.000001 0.039230 -0.011402 0.008390 -0.000001 -0.000000 0.000006 0.000002 0.000000 -0.000000 0.000000 0.000003 0.000003 -0.000000 -0.000006 0.000003 0.043417 0.002450 0.002889 -0.000003 -0.000000 -0.000002 -0.000000 -0.000003 -0.000000 -0.000000 0.000003 -0.000001 -0.000001 -0.000003 -0.000002 -0.016662 0.078957 0.057696 -20.201019 7.464803 -30.620052 -0.176972 -0.020537 -0.095144 -58.967120 11.283163 37.373730 -29.737991 29.037310 12.442836 0.000003 0.000002 -0.000000 -0.021773 -0.038278 0.012988 0.000002 -0.000003 -0.000003 0.000002 0.000002 -0.000001 -0.000000 -0.000003 -0.000012 -0.000003 0.000000 0.000004 0.009114 -0.002381 -0.024211 0.000002 -0.000001 0.000001 -0.000000 -0.000000 -0.000007 0.000000 -0.000000 -0.000006 -0.032828 -0.025095 0.012286 0.000002 -0.000000 -0.000003 -0.000001 0.000000 0.000001 -0.000004 -0.000003 -0.000001 0.000006 0.000000 -0.000000 -0.039192 -0.011488 0.008390 0.000001 0.000006 0.000002 0.000006 0.000000 -0.000002 0.000004 -0.000000 -0.000002 -0.000004 -0.000001 -0.000003 -0.043421 0.002443 0.002845 0.000001 0.000002 0.000004 -0.000004 -0.000001 0.000001 -0.000002 -0.000004 -0.000000 -0.000003 0.000003 0.000000 0.000000 0.000000 0.000000 -1.600681 0.720659 -9.904057 6.403572 0.483072 6.230477 22.223702 1.134374 -11.521973 0.000000 -0.000001 0.000000 -0.000002 -0.000004 0.000001 0.000000 0.000001 0.000002 -0.038000 -0.085200 0.016200 0.000000 0.000002 0.000001 0.000000 0.000000 0.000000 -1.543441 0.711268 -8.670606 -33.201440 -0.379999 -7.457212 38.520177 2.315317 -24.074185 -0.000002 -0.000000 0.000003 -0.000002 0.000006 0.000002 -0.000002 0.000000 0.000000 0.038000 -0.085200 0.016200 -0.000002 0.000001 -0.000003 
